<svg xmlns="http://www.w3.org/2000/svg" width="22" height="22" viewBox="0 0 22 22">
    <path fill="#686A73" d="M20.958 19.295l-5.227-5.233c2.628-3.42 2.365-8.361-.788-11.49C13.22.849 11 0 8.753 0c-2.249 0-4.468.848-6.19 2.573-3.417 3.42-3.417 8.975 0 12.395 1.722 1.725 3.941 2.573 6.19 2.573 1.868 0 3.737-.585 5.285-1.784l5.256 5.204c.233.234.525.351.846.351.292 0 .613-.117.847-.35.438-.44.438-1.2-.03-1.667zM8.782 15.173c-1.723 0-3.3-.673-4.526-1.871-2.482-2.485-2.482-6.549 0-9.063C5.453 3.04 7.059 2.368 8.782 2.368c1.722 0 3.3.672 4.526 1.871 1.226 1.199 1.868 2.807 1.868 4.531 0 1.725-.671 3.304-1.868 4.532-1.198 1.228-2.833 1.87-4.526 1.87z"/>
</svg>
